<?xml version="1.0" encoding="utf-8"?>
<!DOCTYPE svg PUBLIC "-//W3C//DTD SVG 1.0//EN" "http://www.w3.org/TR/2001/REC-SVG-20010904/DTD/svg10.dtd">
<svg version="1.0" xmlns="http://www.w3.org/2000/svg" width="400px" height="400px" viewBox="0 0 400 400" preserveAspectRatio="xMidYMid meet">
 <g fill="#d7cec0">
  <path d="M0 200 l0 -200 200 0 200 0 0 200 0 200 -200 0 -200 0 0 -200z m112 100.4 c1.9 -1.9 1.8 -1.9 -7.3 -1.6 -7.7 0.2 -9.7 0 -12.3 -1.6 -4.2 -2.7 -6.4 -7.8 -6.4 -15.1 0 -12.3 5.2 -17.1 18.9 -17.1 4.4 0 8.1 -0.4 8.1 -0.9 0 -1.3 -5.8 -3.1 -10.2 -3.1 -9.9 0 -20.8 11.2 -20.8 21.2 0.1 6.9 6 15.5 13.2 19.2 4.5 2.3 14.1 1.7 16.8 -1z m20.5 -1.4 l2.5 -4 13 0 13.1 0 2 3.5 c2.3 3.9 4.3 4.8 3 1.3 -0.5 -1.3 -4.7 -10.2 -9.4 -19.8 l-8.5 -17.5 -9.6 19.7 c-5.3 10.9 -9.6 20 -9.6 20.3 0 1.3 1.2 0.2 3.5 -3.5z m80.6 -1.8 c-3.9 -6.3 -4.1 -11.2 -0.6 -15.4 4.4 -5.2 4.5 -10 0.4 -15.2 -3.6 -4.5 -7.6 -6 -16.2 -6 -5.7 0 -8.1 0.4 -8.8 1.5 -0.5 0.8 -0.8 10 -0.6 20.4 0.2 16.1 0.4 19 1.7 19 1.1 0 1.6 -1.4 1.8 -6 0.4 -10.2 0.6 -10.5 6 -10.5 2.6 0 5.2 0.4 5.8 0.8 0.6 0.4 3 3.6 5.4 7.2 2.3 3.6 5 7.3 5.8 8.3 2.8 3.2 2.4 1 -0.7 -4.1z m58.8 -4.3 l0.3 -8 5.7 0.3 5.6 0.3 5.9 8.7 c6.4 9.5 8.3 10.9 4.2 3.2 -3.3 -6.2 -3.3 -11.2 -0.1 -16 3.6 -5.3 3.6 -9 0.2 -14.1 -3.5 -5.1 -7.2 -6.7 -15.8 -6.8 -11.3 0 -10.9 -0.7 -10.9 20.7 0 11.1 0.4 18.7 1.1 20 1.9 3.5 3.4 0.3 3.8 -8.3z m52.1 -11.6 c0 -15.6 -0.2 -18.5 -1.5 -19 -0.9 -0.3 -1.9 -0.2 -2.3 0.2 -1.3 1.3 -1.4 36.2 -0.1 38.6 1.1 2.2 1.2 2.2 2.5 0.4 1.1 -1.4 1.4 -6.3 1.4 -20.2z m-80.9 13.1 c1 -10.7 1 -29.7 0 -31.3 -0.5 -0.8 -1.6 -1.1 -2.5 -0.8 -1.4 0.6 -1.6 3.1 -1.6 19.5 0 10.4 0.3 19.2 0.7 19.6 1.7 1.7 2.8 -0.6 3.4 -7z m-59.2 -71 c-1.4 -3.3 -2.3 -7.9 -2.7 -13.9 l-0.5 -9 -1.8 4 c-2.3 4.9 -2.3 6.8 -0.4 13.3 1.4 4.6 6.2 11.9 7.1 10.9 0.3 -0.2 -0.5 -2.6 -1.7 -5.3z m49.5 1 c1.2 -0.5 0.7 -1.2 -2.3 -3.4 -4.2 -3.1 -6.6 -6.2 -10.2 -13 -2 -3.9 -2.4 -6.3 -2.7 -18.7 -0.3 -11.2 -0.1 -15.1 1.2 -19.1 2.7 -7.9 6.9 -12.7 14.4 -16.4 l6.6 -3.3 22.1 -0.5 c21.9 -0.5 22 -0.5 22.3 -2.7 l0.3 -2.3 -17 0 c-19.1 0 -25 0.9 -33.6 5.2 -8.1 4 -12.9 8.9 -17.2 17.5 -5.8 11.7 -5.7 27.3 0.1 39.8 1.8 4 12.7 17.5 14.1 17.5 0.2 0 1 -0.3 1.9 -0.6z m-66.2 -11.9 c-0.4 -9.3 -0.2 -11.2 1.9 -16.7 5.1 -13.6 2.2 -26.3 -7.6 -32.3 l-4.8 -3 -19 -0.3 c-10.6 -0.2 -19.3 0 -19.8 0.5 -1.3 1.3 2.4 13 6.7 21.4 4.8 9.7 14.4 21.9 22.1 28.2 7 5.7 18 12.7 19.9 12.7 0.7 0 0.9 -3.3 0.6 -10.5z m86.4 -1.8 c13.6 -11.3 26.1 -30.4 29.8 -45.9 0.9 -3.8 -0.8 -4.1 -20.1 -3.6 -15.4 0.3 -16 0.4 -21.2 3.3 -11.5 6.4 -15.4 16.3 -11.8 30.3 0.8 2.8 2.7 7 4.3 9.3 2.8 4.1 10.7 10.9 12.7 10.9 0.5 0 3.4 -1.9 6.3 -4.3z m-49.1 -3.7 c-0.8 -2.4 -1.8 -6.7 -2.1 -9.7 -0.4 -2.9 -1.1 -5.3 -1.7 -5.3 -1.4 0 -0.2 7.7 2.4 14.4 2.4 6.6 3.7 7.1 1.4 0.6z m-2.5 -37.7 c0 -6.9 0.1 -7.2 4.4 -12.5 l4.5 -5.3 -2.8 -0.6 c-4.1 -0.9 -4.9 -1.6 -7.6 -6.9 -1.4 -2.7 -4.3 -7.7 -6.5 -11.1 -2.2 -3.4 -4.4 -7.8 -5 -9.8 -0.5 -2 -1 -16.4 -1 -32.6 0 -28.1 -0.5 -33.4 -3 -30.9 -0.8 0.8 -1.1 9.8 -1 28.2 0 25.6 0.6 31.9 3.1 34.6 0.5 0.6 0.9 2.9 0.9 5.3 0 4.2 -0.1 4.3 -3.1 4.3 -1.7 0 -5.5 -1.3 -8.3 -2.9 -10.1 -5.8 -18 -7.2 -39.7 -6.9 -17.5 0.3 -19.4 0.5 -19.7 2.1 -0.3 1.6 1.2 1.7 21.5 1.7 23.6 0 29.1 0.8 39 5.6 6.3 3 13.8 11 17.5 18.6 2.9 5.9 4.8 15.1 4.8 23.8 0 3.9 0.3 5.1 1 4 0.5 -0.8 1 -4.7 1 -8.7z m-43.4 -31.3 c-5.5 -1.7 -19.3 -2.3 -31.2 -1.4 l-11.9 0.9 20.5 0.5 c11.3 0.3 21.6 0.6 23 0.7 2.2 0.1 2.2 0 -0.4 -0.7z m55 -4.1 c2.4 -2.6 8.6 -6.3 14.4 -8.6 3.7 -1.4 9.2 -1.8 29.5 -2.2 24.1 -0.6 25 -0.7 25 -2.6 0 -1.9 -0.8 -2 -19.5 -2.3 -22.5 -0.3 -28.6 0.5 -38.4 5.4 -5.4 2.8 -7.8 3.4 -11.4 3.2 -4.4 -0.3 -4.7 -0.5 -7.1 -5.3 -2.6 -4.9 -2.6 -5.4 -3.2 -34 -0.4 -15.9 -0.7 -29.1 -0.8 -29.2 0 -0.2 -0.8 -0.3 -1.6 -0.3 -1.3 0 -1.5 3.8 -1.5 28.4 l0 28.5 4.1 7.8 c2.3 4.3 4.8 9 5.6 10.6 1.7 3.3 2.4 3.3 4.9 0.6z m60.2 0.4 c-5.3 -0.2 -14.3 -0.2 -20 0 -5.7 0.1 -1.3 0.3 9.7 0.3 11 0 15.6 -0.2 10.3 -0.3z m-52.5 -23.3 l2.8 -1 -2.3 -3.1 c-2.2 -2.9 -2.3 -4 -2.6 -24.5 -0.3 -20.4 -0.4 -21.5 -2.4 -22.5 -1.5 -0.8 -2.2 -0.8 -2.7 0 -1.1 1.7 -0.1 49.2 1 51.3 0.5 0.9 1.5 1.5 2.2 1.3 0.6 -0.2 2.5 -0.9 4 -1.5z m-62 -1.1 c5.1 -1.4 10.4 -6.3 11.7 -10.7 0.7 -2.2 1 -10.4 0.8 -19.9 l-0.3 -16.3 -6.3 3 c-16.1 7.6 -30 20.7 -39.6 37.3 -4.3 7.6 -4.1 7.7 14.1 7.7 8.7 0 17.5 -0.5 19.6 -1.1z m117.3 -5.6 c-1.6 -4 -10.3 -15.8 -15.7 -21.2 -6.8 -6.8 -16.8 -13.8 -25.1 -17.5 l-5.8 -2.5 0 15.9 c0 8.7 0.4 17 1 18.4 0.5 1.4 2.8 3.9 5.1 5.6 l4.2 3 18.5 0 c16.8 0 18.4 -0.1 17.8 -1.7z"/>
  <path d="M141.7 291.3 c-0.4 -0.3 -0.7 -3.2 -0.7 -6.2 0 -7.5 1.8 -10.1 7 -10.1 2.9 0 4.3 0.6 5.4 2.2 1.9 2.7 2.1 11.9 0.4 13.6 -1.3 1.3 -11 1.7 -12.1 0.5z"/>
  <path d="M193 281.8 c-2.7 -2.9 -2.8 -12.5 -0.2 -15.8 2.2 -2.7 8.4 -3.6 13.7 -1.8 3.3 1.1 4.1 1.9 4.8 5.1 1.2 4.8 0.1 10.3 -2.4 12.8 -2.9 2.9 -13.1 2.7 -15.9 -0.3z"/>
  <path d="M273.6 281.8 c-2.3 -3.3 -2.2 -14 0.2 -16.1 2.7 -2.5 14.3 -2.4 16.5 0.1 2.5 2.8 2.3 12.2 -0.4 15.6 -1.8 2.3 -2.7 2.6 -8.4 2.6 -5.5 0 -6.6 -0.3 -7.9 -2.2z"/>
 </g>
 <g fill="#135741">
  <path d="M84.8 328.3 c-0.3 -6.2 -0.5 -6.8 -2.5 -7.1 -1.3 -0.2 -2.3 -1 -2.3 -1.8 0 -1.2 1.3 -1.4 6.5 -1.2 6.5 0.3 8.7 1.8 4.3 2.8 -2.1 0.5 -2.3 1.2 -2.6 7.3 -0.2 5 -0.7 6.7 -1.7 6.7 -1 0 -1.5 -1.8 -1.7 -6.7z"/>
  <path d="M97 326.5 l0 -8.5 5.3 0 c5.7 0 6.8 0.5 6.1 2.4 -0.3 0.7 -1.8 1 -3.9 0.8 -3 -0.4 -3.5 -0.1 -3.5 1.7 0 1.7 0.6 2.1 3 2.1 2 0 3 0.5 3 1.5 0 1 -1 1.5 -3 1.5 -2.3 0 -3 0.5 -3 1.9 0 1.6 0.8 2 3.8 2.3 5.6 0.5 4 2.3 -2.3 2.6 l-5.5 0.3 0 -8.6z"/>
  <path d="M114.1 332.4 c-4.9 -6.2 -0.8 -14.8 6.7 -14.2 2.7 0.2 3.8 0.8 4 2.2 0.3 1.5 0 1.8 -1.8 1.3 -1.2 -0.3 -3.3 -0.2 -4.6 0.3 -1.9 0.8 -2.4 1.7 -2.4 4.4 0 4.3 2 6 6.1 5.1 2.6 -0.6 3 -0.4 2.7 1.2 -0.2 1.3 -1.4 1.9 -4.4 2.1 -3.5 0.3 -4.5 -0.1 -6.3 -2.4z"/>
  <path d="M130 326.4 c0 -7.6 0.2 -8.5 1.8 -8.2 1.1 0.2 1.8 1.4 2 3.6 0.3 2.8 0.7 3.2 3.3 3.2 2.7 0 2.9 -0.3 2.9 -3.6 0 -2.8 0.3 -3.5 1.8 -3.2 1.4 0.3 1.7 1.5 1.7 8.3 0 6.8 -0.3 8 -1.7 8.3 -1.5 0.3 -1.8 -0.4 -1.8 -3.3 0 -3 -0.3 -3.6 -1.6 -3.1 -0.9 0.3 -2.2 0.6 -3 0.6 -0.9 0 -1.4 1.1 -1.4 3 0 2.3 -0.4 3 -2 3 -1.8 0 -2 -0.7 -2 -8.6z"/>
  <path d="M148 326.5 c0 -7.7 0.2 -8.5 1.9 -8.5 1.3 0 3 1.8 5 5.3 l3.1 5.2 0 -5.2 c0 -4.6 0.3 -5.3 2 -5.3 1.8 0 2 0.7 2 8.5 0 8.2 -0.1 8.5 -2.3 8.5 -1.6 0 -2.9 -1.2 -4.7 -4.7 l-2.5 -4.8 -0.3 4.8 c-0.3 3.9 -0.6 4.7 -2.3 4.7 -1.7 0 -1.9 -0.7 -1.9 -8.5z"/>
  <path d="M168 332.8 c-2.9 -3.2 -2.7 -9.2 0.5 -12.3 7.4 -7.5 18 3.5 11.4 11.9 -2.7 3.4 -8.8 3.7 -11.9 0.4z m8.8 -2 c2 -2 1.5 -7.6 -0.9 -8.8 -2.7 -1.5 -4.7 -0.6 -5.9 2.6 -1.9 4.9 3.4 9.6 6.8 6.2z"/>
  <path d="M186 326.5 c0 -7.7 0.2 -8.6 1.8 -8.3 1.4 0.3 1.8 1.6 2 7.1 l0.3 6.7 3.5 0 c5.7 0 3.6 2.5 -2.4 2.8 l-5.2 0.3 0 -8.6z"/>
  <path d="M201.2 332.7 c-3.1 -3.3 -3 -9.6 0.1 -12.5 5.2 -4.9 13.7 -1 13.7 6.1 0 7.8 -8.7 11.8 -13.8 6.4z m9.6 -3.9 c2.5 -5.4 -3.4 -10.3 -7 -5.8 -2.2 2.8 -2.3 5.4 -0.2 7.5 2.3 2.3 5.7 1.5 7.2 -1.7z"/>
  <path d="M221.3 333.5 c-4.4 -3.1 -3.8 -11.8 1.1 -14.4 3.3 -1.8 9 -1 9.4 1.3 0.4 1.6 0 1.8 -2.9 1.2 -3.8 -0.7 -6.9 1.4 -6.9 4.9 0 2.5 2.9 5.5 5.3 5.5 1.8 0 2.3 -2.5 0.7 -3.5 -2 -1.2 -0.9 -2.5 2 -2.5 2.7 0 3 0.3 3 3.3 0 1.8 -0.5 3.8 -1.2 4.5 -1.7 1.7 -7.9 1.5 -10.5 -0.3z"/>
  <path d="M240 331.3 c0 -2.2 -1.1 -5.5 -2.5 -7.8 -2.9 -4.7 -3 -5.5 -1 -5.5 0.9 0 2.4 1.3 3.3 3 0.9 1.6 1.9 3 2.2 3 0.3 0 1.3 -1.4 2.2 -3 0.9 -1.7 2.4 -3 3.3 -3 2 0 1.9 0.8 -1 5.5 -1.4 2.3 -2.5 5.6 -2.5 7.8 0 3 -0.4 3.7 -2 3.7 -1.6 0 -2 -0.7 -2 -3.7z"/>
  <path d="M262 328 c0 -6.9 -0.1 -7 -2.6 -7 -1.6 0 -2.4 -0.5 -2.2 -1.2 0.3 -0.8 2.9 -1.4 7.1 -1.6 5.5 -0.2 6.7 0 6.7 1.3 0 0.9 -0.9 1.5 -2.5 1.5 -2.4 0 -2.5 0.2 -2.5 7 0 6.3 -0.2 7 -2 7 -1.8 0 -2 -0.7 -2 -7z"/>
  <path d="M274.4 333.7 c-0.3 -0.8 -0.4 -4.5 -0.2 -8.3 l0.3 -6.9 5.4 0 c6.4 0 8.4 2.2 2.4 2.7 -2.7 0.2 -3.9 0.8 -4.1 2.1 -0.3 1.3 0.3 1.7 2.7 1.7 2.1 0 3.1 0.5 3.1 1.5 0 1 -1 1.5 -3 1.5 -2.3 0 -3 0.4 -3 2 0 1.7 0.7 2 4 2 2.9 0 4 0.4 4 1.5 0 2 -10.8 2.2 -11.6 0.2z"/>
  <path d="M289 334.6 c0 -0.2 0.6 -1.9 1.3 -3.7 0.8 -1.9 2.2 -5.6 3.1 -8.2 2.7 -7.2 5 -6.3 9.1 3.8 2.9 6.9 3.1 8.1 1.8 8.4 -0.9 0.2 -2.2 -0.4 -2.8 -1.3 -1.6 -2.1 -8.5 -2.2 -8.5 -0.1 0 0.8 -0.9 1.5 -2 1.5 -1.1 0 -2 -0.2 -2 -0.4z m9.9 -6.8 c0 -0.7 -0.4 -2.2 -0.9 -3.3 -0.7 -1.9 -0.9 -1.8 -1.9 0.8 -1.4 3.7 -1.4 3.7 0.9 3.7 1.1 0 2 -0.6 1.9 -1.2z"/>
  <path d="M309 326.5 c0 -7.8 0.2 -8.5 2 -8.5 1.3 0 2.7 1.5 4.3 4.6 l2.3 4.6 1.8 -4.6 c1.4 -3.6 2.3 -4.6 3.7 -4.4 1.1 0.2 2 0.6 1.9 1.1 0 0.4 0 4.1 0 8.2 0 6 -0.3 7.5 -1.5 7.5 -1.1 0 -1.5 -1.2 -1.5 -4.7 l-0.1 -4.8 -2 3.8 c-2.4 4.5 -3.3 4.6 -5.1 0.7 -1.8 -4.1 -2.8 -3.8 -2.8 1 0 2.9 -0.4 4 -1.5 4 -1.2 0 -1.5 -1.6 -1.5 -8.5z"/>
  <path d="M96.7 305.9 c-8.5 -2 -15.6 -9.7 -17.8 -19.3 -2.2 -10.2 3.6 -21.7 13.5 -26.8 8 -4.1 22.9 -2.3 24.2 2.9 1.2 4.8 -0.5 5.8 -8.9 5.5 -6.4 -0.3 -8.2 0 -11.5 1.8 -9 5.1 -9.5 18.8 -0.8 24.1 3.5 2.1 11.5 2.6 14.8 0.8 3 -1.6 6.7 -0.3 7.4 2.7 0.9 3.6 -2.7 7 -8.8 8.3 -5.6 1.2 -6.8 1.2 -12.1 0z"/>
  <path d="M212.4 305.6 c-1.2 -0.8 -4.3 -4.9 -7 -9.1 -5 -7.7 -8.7 -10.3 -10.5 -7.4 -0.5 0.8 -0.9 4.3 -0.9 8 0 3.7 -0.5 7 -1.2 7.7 -1.5 1.5 -6.1 1.5 -7.6 0 -1.5 -1.5 -1.7 -43.5 -0.2 -45.8 0.7 -1.2 3.2 -1.5 11.7 -1.5 9.1 0 11.4 0.3 14.3 2.1 5.5 3.2 8 7.7 8 14.3 0 5.4 -0.7 7 -5.2 13.2 -0.9 1.4 -0.4 2.9 3 8.4 2.3 3.6 4.2 7 4.2 7.5 0 1.1 -4 4 -5.5 4 -0.6 0 -2 -0.7 -3.1 -1.4z m-7.9 -25.2 c2.2 -0.9 4.3 -5.9 3.7 -9 -0.9 -4.8 -9.1 -6.4 -12.4 -2.4 -5 6.2 1.2 14.3 8.7 11.4z"/>
  <path d="M293.8 306.2 c-1 -0.4 -4.3 -4.5 -7.5 -9.2 -4.6 -6.8 -6.4 -8.6 -8.5 -8.8 l-2.8 -0.3 0 6.5 c0 9.3 -1.1 11.6 -5.4 11.6 -2.5 0 -3.8 -0.6 -4.6 -1.9 -0.6 -1.2 -1 -10.4 -1 -22.9 0 -18.3 0.2 -21.1 1.7 -22.3 2.7 -2.3 21.9 -1.9 25.8 0.4 7.4 4.5 10.3 14.1 6.6 21.8 -1.1 2.4 -2.6 5.1 -3.2 6 -1.3 1.7 -0.8 3 4.7 12.7 1.9 3.3 1.9 3.3 -0.5 5.3 -2.5 2.1 -2.7 2.1 -5.3 1.1z m-6.9 -27.8 c4.2 -5.3 1.7 -11.4 -4.7 -11.4 -4.5 0 -7.2 2.4 -7.2 6.4 0 7.4 7.6 10.5 11.9 5z"/>
  <path d="M125.4 303.6 c-0.4 -1.7 2.3 -8.1 10 -24 12.8 -26.5 12.9 -26.5 19.6 -12.3 2.4 5 7 14.5 10.2 21.1 6 12.2 6.9 16 4.2 17 -4 1.5 -6.4 0.6 -8.9 -3.4 l-2.5 -4 -10 0 -10 0 -2.5 4 c-2.2 3.4 -3 4 -6 4 -2.8 0 -3.6 -0.4 -4.1 -2.4z m25.4 -15.8 c1.8 -1.8 1.4 -5.3 -0.8 -7.9 l-2 -2.4 -2 2.4 c-1.9 2.2 -2.7 7.1 -1.3 8.4 1.1 1.1 4.8 0.8 6.1 -0.5z"/>
  <path d="M237.2 304.8 c-1.7 -1.7 -1.7 -43.9 0 -45.6 1.7 -1.7 6.4 -1.5 8.3 0.5 1.5 1.4 1.7 4 1.3 22.3 -0.3 15.5 -0.7 21.2 -1.7 22.4 -1.6 1.9 -6.2 2.1 -7.9 0.4z"/>
  <path d="M317 304 c-0.7 -1.4 -1 -9.2 -0.8 -23.1 0.3 -22.7 0.4 -22.9 5.8 -22.9 1.5 0 3.1 0.5 3.8 1.2 1.5 1.5 1.7 42 0.2 44.9 -1.5 2.7 -7.5 2.6 -9 -0.1z"/>
  <path d="M185.3 232.9 c-4.2 -1.2 -7.9 -5.8 -9.8 -12.1 -3 -10.3 -1.2 -20.2 4.8 -25.7 3.3 -3 3.4 -2.7 4 10.6 0.4 9.5 0.6 10.7 4.5 18.3 2.3 4.5 3.9 8.6 3.6 9.1 -0.6 1.1 -2.8 1 -7.1 -0.2z"/>
  <path d="M198.8 231.3 c-9 -10 -10.8 -16.5 -11.7 -43.3 l-0.7 -21.5 -3.4 -6.3 c-4.5 -8.6 -11.5 -14.1 -21.5 -17.2 -2.4 -0.8 -13.1 -1.5 -26.5 -1.9 l-22.5 -0.6 0 -3 0 -3 8 -0.8 c4.4 -0.4 14.8 -0.6 23 -0.3 17.3 0.5 24.7 2.3 33.3 8.1 5.6 3.8 12.2 12.8 14.3 19.4 0.6 2 1.5 12.6 1.9 23.6 0.9 24.3 2.5 29.7 12.5 41.9 2.5 3.1 4.5 6 4.5 6.6 0 0.5 -1.9 1 -4.3 1 -3.4 0 -4.8 -0.6 -6.9 -2.7z"/>
  <path d="M166.2 227 c-16.7 -5.9 -35.3 -23.4 -44.7 -41.9 -4.3 -8.6 -7.7 -20 -7.3 -24.3 l0.3 -3.3 22.6 0 22.6 0 4.8 3 c3.5 2.1 5.6 4.5 7.4 8 2.3 4.4 2.6 6.1 2.5 15 0 7.9 -0.5 11.1 -2.2 15.3 -2.6 6.3 -2.8 13.1 -0.6 22 0.9 3.5 1.2 6.8 0.8 7.2 -0.5 0.5 -3.3 0 -6.2 -1z"/>
  <path d="M223.4 222.6 c-10.7 -10.9 -13.9 -20.5 -13.2 -39.2 0.4 -10.5 0.7 -11.8 4.1 -18.6 4.3 -8.7 9 -13.6 17.2 -17.6 8.8 -4.4 14.5 -5.2 36.5 -5.2 l20 0 0.6 2.5 c0.3 1.3 0.2 3.7 -0.3 5.2 l-1 2.8 -21.9 0.5 -22 0.5 -6.6 3.3 c-7.5 3.7 -11.7 8.5 -14.4 16.5 -2.5 7.4 -1.6 25.5 1.5 31.7 3.5 6.7 6.7 10.6 11.6 14 2.5 1.7 4.5 3.7 4.5 4.5 0 1.7 -3.4 4.1 -7.3 5.1 -2.6 0.6 -3.5 0 -9.3 -6z"/>
  <path d="M201.5 166.8 c-0.2 -0.7 -0.6 -2.9 -0.9 -4.8 -1 -5.8 -6.9 -17.1 -12.7 -24 -5.5 -6.6 -8.4 -11 -7.3 -11 0.3 0 1.4 0.5 2.5 1 1.5 0.8 1.9 0.7 1.9 -0.4 0 -0.8 -0.4 -1.7 -0.9 -2 -2.2 -1.4 -3.1 -10.8 -3.4 -36.1 -0.2 -14.8 -0.1 -28.3 0.2 -30 0.5 -2.3 1.4 -3.1 4 -3.9 6 -1.7 6.1 -1 6.1 31.8 0 16.4 0.5 30.7 1 32.7 0.6 2 2.8 6.4 5 9.8 2.2 3.4 5.1 8.4 6.5 11.1 2.1 4.2 4.9 7 6.9 7 0.2 0 2.8 -2.1 5.8 -4.6 12.4 -10.7 19.2 -12.4 49 -12.4 l22.8 0 0 2.9 c0 1.7 -0.6 3.1 -1.6 3.5 -0.9 0.3 -10.9 0.6 -22.2 0.6 -23 0 -27.1 0.7 -37.2 6.1 -6.6 3.5 -20.6 17.5 -21.6 21.7 -0.7 2.4 -3.2 3 -3.9 1z"/>
  <path d="M206 136.8 c-1.3 -2.4 -4 -7.6 -6.2 -11.6 l-3.8 -7.3 0 -31.3 c0 -27.7 0.2 -31.5 1.6 -32 2.6 -1 6.2 -0.7 7.1 0.7 0.4 0.6 1 14 1.3 29.7 0.5 27.5 0.6 28.7 2.9 33.3 1.3 2.7 3 5.1 3.8 5.4 0.9 0.3 4.7 -1 8.7 -2.9 10.2 -5.1 14.9 -5.8 40.7 -5.8 l22.9 0 1 2.6 c1.5 3.8 1.2 7.1 -0.6 7.8 -0.9 0.3 -11.3 0.6 -23.3 0.6 -28.1 0 -35.5 1.8 -45.6 11.1 -5.5 5.1 -7.5 5 -10.5 -0.3z"/>
 </g>
 <g fill="#87982a">
  <path d="M93.9 356.1 c-0.1 -0.6 -0.3 -1.5 -0.4 -2.1 -0.1 -0.5 -0.3 -2.6 -0.4 -4.5 -0.1 -2.4 -0.6 -3.5 -1.6 -3.5 -0.8 0 -1.5 -0.4 -1.5 -1 0 -0.5 2.1 -1 4.8 -1 4.1 0.1 4.5 0.2 3 1.4 -1.3 0.9 -1.8 2.7 -1.8 5.9 0 2.5 -0.4 4.9 -1 5.2 -0.5 0.3 -1.1 0.1 -1.1 -0.4z"/>
  <path d="M113.8 356.3 c-1.5 -0.4 -1.8 -1.6 -1.8 -6.4 l0 -5.9 4 0 c2.2 0 4 0.5 4 1 0 0.6 -1.3 1 -3 1 -2 0 -3 0.5 -3 1.5 0 0.9 1 1.5 2.6 1.5 1.4 0 2.3 0.4 1.9 1 -0.3 0.6 -1.5 1 -2.6 1 -2.8 0 -2.3 2.8 0.6 3.2 1.4 0.2 2.7 0.8 2.8 1.3 0.2 1.1 -2.8 1.6 -5.5 0.8z"/>
  <path d="M175.1 355.1 c-1.4 -2.5 -1.4 -11.1 -0.1 -11.1 0.6 0 1.3 0.7 1.6 1.5 0.8 1.9 2.1 1.9 4.1 -0.1 1.8 -1.7 5.4 -1.5 6.1 0.4 0.3 0.9 -0.3 1.3 -1.8 1 -1.3 -0.2 -2.5 0.3 -2.7 1 -0.3 0.7 0.5 1.2 2 1.2 1.4 0 3.2 0.3 4 0.6 1 0.3 1.8 -0.5 2.6 -2.7 0.9 -2.6 1.3 -2.9 2.5 -2 1.6 1.4 4.9 10.2 4.1 11 -0.3 0.3 -1.9 -0.3 -3.4 -1.2 -2.5 -1.5 -3 -1.5 -3.5 -0.2 -0.8 2.1 -9.4 2.1 -10.2 0 -0.8 -1.9 -2.4 -2 -2.4 -0.1 0 2.4 -1.8 2.8 -2.9 0.7z m9.4 -4.3 c-1.9 -1.1 -3 -0.5 -2.1 1.1 0.4 0.6 1.4 0.7 2.2 0.4 1.5 -0.5 1.4 -0.7 -0.1 -1.5z"/>
  <path d="M269.8 356.5 c-1.2 -1.3 3.2 -11.5 4.9 -11.5 1.2 0 1.4 0.4 1.7 3.6 0.1 0.6 0.8 2.3 1.5 3.8 1.7 3 0.6 4.9 -1.3 2.3 -1.8 -2.3 -4.1 -2.2 -5.2 0.4 -0.5 1.1 -1.2 1.7 -1.6 1.4z"/>
  <path d="M303.7 356.3 c-0.2 -0.5 -0.3 -3.3 -0.3 -6.3 l0.1 -5.5 3.5 0 c3.2 0 3.5 0.2 3.5 3 0 2.2 -0.6 3.3 -2.2 4 -1.4 0.6 -2.3 1.8 -2.3 3.2 0 2.2 -1.4 3.1 -2.3 1.6z m4.7 -9.4 c-0.8 -1.3 -2.1 -1.1 -2.7 0.5 -0.4 1 0 1.2 1.4 0.9 1 -0.3 1.6 -0.9 1.3 -1.4z"/>
  <path d="M313 350.6 l0 -6.6 3.6 0 c2.1 0 3.3 0.4 2.9 1 -0.3 0.6 -1.5 1 -2.7 1 -1.7 0 -1.8 0.2 -0.8 1.5 0.7 0.8 1.9 1.5 2.6 1.5 0.8 0 1.4 0.5 1.4 1 0 0.6 -1.2 1 -2.6 1 -3.1 0 -2.8 2.3 0.4 2.8 2.3 0.4 3.1 2.2 1 2.2 -0.7 0 -2.3 0.3 -3.5 0.6 -2.2 0.6 -2.3 0.4 -2.3 -6z"/>
  <path d="M82.9 353.7 c-1.5 -2 -1.5 -2.3 0.1 -3.9 2 -2.2 3 -2.3 3 -0.3 0 0.8 0.4 1.5 1 1.5 0.6 0 0.5 1 -0.2 2.5 -1.4 3 -1.8 3.1 -3.9 0.2z"/>
  <path d="M100.5 355 c-0.8 -1.3 0.6 -11 1.6 -11 0.5 0 0.9 0.9 0.9 2 0 1.2 0.7 2 1.6 2 0.9 0 1.8 -0.9 2.1 -2 1 -3.9 2.3 -1.9 2.3 3.4 0 5.5 -1.6 8.6 -2.2 4.4 -0.4 -2.9 -3.8 -3.8 -3.8 -0.9 0 2.3 -1.6 3.6 -2.5 2.1z"/>
  <path d="M129.2 354.8 c-1.7 -1.7 -1.5 -7.4 0.4 -9.3 1.9 -1.8 5.5 -1.6 6.2 0.4 0.3 0.9 -0.1 1.1 -1.5 0.7 -2.5 -0.8 -4.6 1.5 -4.1 4.6 0.2 1.9 0.9 2.3 4 2.4 3.4 0.1 3.7 -0.2 5.3 -4.2 0.9 -2.4 2 -4.6 2.5 -4.9 0.9 -0.6 5 7.7 5 10.1 0 1.7 -1.2 1.8 -2.7 0.3 -0.7 -0.7 -1.9 -0.8 -3 -0.4 -3.1 1.3 -10.9 1.5 -12.1 0.3z"/>
  <path d="M149 354.6 c0 -0.8 0.9 -3.6 2.1 -6.3 2 -4.6 2.1 -4.7 3.5 -2.8 2 2.6 3.9 9.3 3 10.2 -0.4 0.5 -1.2 0 -1.7 -1 -1.2 -2.1 -3.8 -2.2 -4.5 -0.2 -0.8 1.9 -2.4 2 -2.4 0.1z"/>
  <path d="M162 351.1 c0 -3.8 -0.4 -5.1 -1.4 -5.1 -0.8 0 -1.8 -0.4 -2.1 -1 -0.4 -0.6 1.2 -1 4.1 -1 4.2 0 4.5 0.2 3.3 1.6 -0.7 0.9 -1.3 3.4 -1.4 5.7 0 2.3 -0.5 4.2 -1.2 4.4 -0.9 0.3 -1.3 -1 -1.3 -4.6z"/>
  <path d="M205 349.9 l0 -6 3.3 0.3 c2.9 0.3 3.2 0.6 3.1 3.6 -0.1 1.7 0.2 3.2 0.7 3.2 0.5 0 0.9 -0.8 0.9 -1.7 0.1 -4.9 5.3 -6.9 8.5 -3.3 1 1.1 2.2 2 2.7 2 0.5 0 0.6 -0.9 0.3 -2 -0.8 -2.4 0.7 -2.6 2.6 -0.4 1.2 1.4 1.4 1.4 2.4 0.1 1.6 -2.2 4.5 -1.5 7 1.7 l2.2 2.8 1.3 -3.1 c2.2 -5.3 4.1 -4 3.8 2.7 -0.2 3.1 -0.7 5.6 -1.3 5.5 -0.5 -0.2 -1.1 -0.7 -1.1 -1.3 -0.3 -2.1 -0.4 -2.2 -1.9 -1 -1.2 1 -1.8 1 -3 0 -1.2 -1 -1.5 -1 -1.5 0.4 0 0.9 -0.7 1.6 -1.5 1.6 -1 0 -1.5 -1.1 -1.5 -3.5 0 -4.1 -1.1 -4.5 -3.4 -1 -1.5 2.3 -4.5 2.7 -3.1 0.4 0.4 -0.5 0 -0.9 -0.7 -0.9 -0.7 0 -2.1 1.4 -3 3 -1.8 3.2 -5.4 4 -7.6 1.8 -0.9 -0.9 -1.5 -0.9 -2.4 0 -0.7 0.7 -2.5 1.2 -4 1.2 -2.8 0 -2.8 -0.1 -2.8 -6.1z m4.2 2.6 c0 -0.5 -0.5 -1.1 -1.1 -1.3 -0.6 -0.2 -1.1 0.4 -1.1 1.3 0 0.9 0.5 1.5 1.1 1.3 0.6 -0.2 1.1 -0.8 1.1 -1.3z m10.6 -0.8 c0.2 -1.2 -0.3 -1.7 -1.7 -1.7 -1.2 0 -2.1 0.6 -2.1 1.3 0 3.1 3.2 3.4 3.8 0.4z m-10.8 -4.2 c0 -0.8 -0.4 -1.5 -1 -1.5 -0.5 0 -1 0.7 -1 1.5 0 0.8 0.5 1.5 1 1.5 0.6 0 1 -0.7 1 -1.5z"/>
  <path d="M247 350 l0 -6 3.5 0 c1.9 0 3.5 0.5 3.5 1 0 0.6 -1.1 1 -2.5 1 -1.6 0 -2.5 0.6 -2.5 1.5 0 0.8 0.9 1.5 2 1.5 1.1 0 2 0.5 2 1 0 0.6 -0.9 1 -2 1 -1.1 0 -2 0.7 -2 1.5 0 0.9 0.9 1.5 2.4 1.5 1.4 0 2.8 0.5 3.1 1 0.4 0.6 -1 1 -3.4 1 l-4.1 0 0 -6z"/>
  <path d="M281 350.1 c0 -3.4 0.4 -6.1 1 -6.1 0.6 0 1 2.3 1 5 0 4.9 0.1 5 3 5 2.9 0 3 -0.1 3 -5.1 0 -3.6 0.4 -4.9 1.3 -4.6 0.6 0.2 1.1 0.9 1 1.5 -0.5 2.1 -0.6 6.7 -0.2 8.1 0.3 1 -1 1.5 -4.8 1.8 l-5.3 0.4 0 -6z"/>
  <path d="M293.2 354.8 c-0.7 -0.9 -0.8 -2.7 -0.2 -5.2 1 -4.8 2.1 -5.9 5.1 -5.4 2.2 0.3 2.4 0.8 2.4 5.8 0 5.4 0 5.5 -3.1 5.8 -1.7 0.2 -3.6 -0.3 -4.2 -1z m5.6 -5.6 c-0.2 -1.4 -0.8 -2.7 -1.4 -2.9 -1.4 -0.5 -2.6 3.9 -1.8 6.1 1 2.5 3.6 -0.2 3.2 -3.2z"/>
  <path d="M169.8 354.5 c-0.9 -1.4 -1.3 -12.3 -0.5 -13.1 0.4 -0.4 0.9 0 1.2 0.8 0.8 2.1 0.2 13.6 -0.7 12.3z"/>
  <path d="M263 352.1 c-1.6 -3 -1.2 -5.5 1 -6.9 2.3 -1.4 4 -0.8 4 1.3 0 0.9 -0.6 1.2 -1.5 0.9 -1 -0.4 -1.5 0 -1.5 1.5 0 1.2 0.5 2.1 1 2.1 0.6 0 1 0.7 1 1.5 0 2.2 -2.7 1.9 -4 -0.4z"/>
  <path d="M211.5 227.8 c-8.9 -9.9 -14.5 -22.8 -14.5 -33.4 0 -4.3 0.4 -5.5 2 -6.4 2.9 -1.6 6 0.4 6 3.8 0 4 2.7 13.9 5.4 19.8 1.3 2.8 4.9 8.1 8.1 11.9 5.4 6.4 5.7 6.9 4 8.2 -3.5 2.5 -6.1 1.5 -11 -3.9z"/>
  <path d="M178.7 187.4 c-0.4 -0.4 -0.7 -3.9 -0.7 -7.7 0 -9.7 -1.7 -14.4 -6.7 -19.4 -7 -6.8 -10.5 -7.6 -36.3 -8.2 l-22.5 -0.6 0 -2.5 0 -2.5 20.5 -0.3 c23.1 -0.3 28.4 0.5 36 5.1 8 4.8 12.9 12.4 14.3 21.9 0.7 5 0.7 8.7 0.1 10.9 -0.9 3.2 -3.2 4.8 -4.7 3.3z"/>
  <path d="M196.9 182.8 c-0.1 -0.7 -0.1 -3.3 0 -5.8 0.6 -12.5 -3.9 -25.4 -11.7 -34.1 -5 -5.6 -8.9 -8.2 -16.8 -11.1 -5.3 -1.9 -8.6 -2.2 -30.4 -2.7 -23.8 -0.6 -24.5 -0.7 -24.8 -2.7 -0.2 -1.1 0.2 -3.2 0.7 -4.7 l1.1 -2.7 22.2 0 c19.5 0 23.3 0.3 29.8 2.1 15.6 4.3 25.6 12.7 32.6 27.4 3.9 8.1 5.4 15 5.4 24.6 0 5.6 -0.4 7.3 -2 8.9 -2.2 2.2 -5.9 2.7 -6.1 0.8z"/>
  <path d="M120.2 112.8 c-1.9 -1.9 -1.4 -5.1 1.9 -11.4 9.7 -18.1 27.3 -34 44.7 -40.3 8.4 -3.1 8.2 -3.7 8.2 19 0 14.6 -0.4 20.8 -1.4 23.2 -1.7 4.2 -6.6 8.3 -11.4 9.7 -5.4 1.5 -40.5 1.3 -42 -0.2z"/>
 </g>
 <g fill="#d04428">
  <path d="M243.3 217.5 c-4.7 -2 -12.1 -9.9 -14.5 -15.3 -2.6 -5.8 -3.6 -20.3 -1.8 -26.6 1.6 -5.9 5.6 -10.5 12.1 -14.1 5.4 -3 5.5 -3 24.3 -3.3 10.3 -0.2 20 -0.1 21.3 0.3 2.4 0.6 2.5 0.9 2 5.8 -1.5 15.2 -15.3 37.4 -30.9 50 -6.4 5.1 -7.6 5.4 -12.5 3.2z"/>
 </g>
 <g fill="#e49039">
  <path d="M212 113.9 c-0.8 -1.3 -1.3 -11.8 -1.5 -29 -0.4 -30.1 -0.4 -30.3 5.9 -28.9 1.8 0.4 3.9 1 4.5 1.4 0.7 0.5 1.1 6.8 1.1 19.9 0 10.6 0.4 20.8 1 22.6 0.5 1.9 2.6 5.2 4.7 7.3 2 2.1 3.5 3.9 3.2 4.1 -0.2 0.3 -3 1.4 -6.2 2.6 -7.5 2.7 -11.3 2.7 -12.7 0z"/>
  <path d="M233.1 106 c-2.3 -1.7 -4.6 -4.2 -5.2 -5.7 -0.5 -1.4 -0.8 -10.8 -0.7 -21.7 l0.3 -19.1 2.7 0.2 c4.5 0.3 18.9 7.9 26.7 14.1 4 3.2 9.7 8.9 12.7 12.6 6.5 8.2 12.8 19.1 12 21.1 -0.4 1.3 -4 1.5 -22.4 1.5 l-21.9 0 -4.2 -3z"/>
 </g>
</svg>